<svg width="230" height="74" viewBox="0 0 230 74" fill="none" xmlns="http://www.w3.org/2000/svg">
<path d="M29.532 52.1909C29.0744 52.6526 28.6298 53.1264 28.2038 53.6165L18.1889 45.4848C21.8653 41.1706 26.3977 37.6095 31.5199 35.0601C31.3268 34.7883 31.2181 34.4613 31.2181 34.1205C31.2181 33.2263 31.9459 32.4985 32.8409 32.4985C33.2352 32.4985 33.6239 32.6486 33.92 32.914H34.4531V25.0557C14.4638 31.6685 0 50.5292 0 72.7068C0 72.7928 0.00324872 72.8788 0.00324872 72.9649H8.15849C8.15767 72.8788 8.15361 72.7937 8.15361 72.7068C8.15361 62.8185 11.5882 53.7196 17.3247 46.5339L27.3364 54.664C23.4061 59.6297 21.0498 65.8969 21.0498 72.7068C21.0498 72.7928 21.0555 72.8788 21.0563 72.9649H22.4154C22.4146 72.8788 22.4089 72.7937 22.4089 72.7068C22.4089 65.423 25.2317 58.7891 29.8355 53.8307L29.532 52.1909Z" fill="#D7CA9B"/>
<path d="M65.8789 25.0469V32.9125H66.4136C66.7098 32.6471 67.0984 32.497 67.4928 32.497C68.3877 32.497 69.1155 33.2249 69.1155 34.1198C69.1155 34.4582 69.01 34.7819 68.8194 35.0529C73.983 37.621 78.5496 41.2178 82.243 45.5774L72.2296 53.7091C71.7728 53.1793 71.2957 52.6681 70.8032 52.1724L70.5006 53.8106C75.1157 58.7706 77.9458 65.4126 77.9458 72.7053C77.9458 72.7922 77.9402 72.8774 77.9394 72.9634H79.2985C79.2993 72.8774 79.3049 72.7922 79.3049 72.7053C79.3049 65.9392 76.9795 59.7094 73.0938 54.7583L83.1063 46.6274C88.7973 53.7984 92.2011 62.8616 92.2011 72.7053C92.2011 72.7914 92.1971 72.8774 92.1963 72.9634H100.351C100.352 72.8774 100.354 72.7914 100.354 72.7053C100.354 50.5196 85.8796 31.6532 65.8789 25.0469Z" fill="#D7CA9B"/>
<path d="M67.7958 39.7303C68.0928 39.6094 68.3029 39.319 68.3029 38.979C68.3029 38.6382 68.0928 38.3477 67.7958 38.2277V34.8718C68.0928 34.7509 68.3029 34.4604 68.3029 34.1204C68.3029 33.6717 67.9394 33.3082 67.4915 33.3082C67.1881 33.3082 66.9268 33.477 66.7872 33.7236H65.0671V21.4409C65.1596 21.5131 65.2586 21.5845 65.3422 21.6583C65.4193 21.7265 65.515 21.7605 65.6107 21.7605C65.7227 21.7605 65.8339 21.7143 65.915 21.6234C66.0627 21.4555 66.0473 21.1999 65.8801 21.0506C64.2501 19.6095 61.1067 18.5012 57.2072 17.8918V24.1898V29.6959C59.7663 31.7585 61.407 34.9156 61.407 38.45C61.407 44.649 56.3642 49.6917 50.1652 49.6917C43.9662 49.6917 38.9234 44.6482 38.9234 38.45C38.9234 34.9156 40.5648 31.7585 43.1231 29.6959V24.1898V17.8918C39.2244 18.502 36.0803 19.6095 34.451 21.0506C34.2831 21.1991 34.2676 21.4555 34.4161 21.6234C34.5646 21.7914 34.8202 21.8076 34.989 21.6583C35.0725 21.5845 35.1715 21.5131 35.264 21.4409V33.7236H33.5455C33.406 33.477 33.1447 33.3082 32.8413 33.3082C32.3934 33.3082 32.0299 33.6717 32.0299 34.1204C32.0299 34.4604 32.24 34.7509 32.537 34.8718V38.2277C32.24 38.3477 32.0299 38.6382 32.0299 38.979C32.0299 39.319 32.24 39.6094 32.537 39.7303V43.4408H30.0273V50.4025L30.046 50.5039H36.0259C36.1639 49.6422 36.757 48.9331 37.5505 48.6288V46.9833C37.5505 46.5054 37.9384 46.1176 38.4163 46.1176C38.8942 46.1176 39.2828 46.5054 39.2828 46.9833V48.6288C40.0764 48.9331 40.6687 49.6422 40.8066 50.5039H59.5278C59.6649 49.6422 60.258 48.9331 61.0515 48.6288V46.9833C61.0515 46.5054 61.4394 46.1176 61.9173 46.1176C62.3961 46.1176 62.7839 46.5054 62.7839 46.9833V48.6288C63.5774 48.9331 64.1706 49.6422 64.3077 50.5039H70.2876L70.3062 50.4025V43.4408H67.7983V39.7303H67.7958ZM35.2624 43.44H33.1439V39.7295C33.3687 39.6378 33.5407 39.4488 33.6121 39.2143H35.2624V43.44ZM35.2624 38.6074H33.5577C33.4693 38.4362 33.3232 38.2999 33.1439 38.2277V34.8718C33.3768 34.7776 33.5537 34.5772 33.6202 34.3322H35.2624V38.6074ZM38.0999 30.0578C37.7956 30.0578 37.5489 29.8111 37.5489 29.5077V23.5943C37.5489 23.2908 37.7956 23.0442 38.0999 23.0442H40.9251C41.2286 23.0442 41.4752 23.2908 41.4752 23.5943V29.5077C41.4752 29.8111 41.2286 30.0578 40.9251 30.0578H38.0999ZM62.7806 29.5077C62.7806 29.8111 62.534 30.0578 62.2305 30.0578H59.4052C59.101 30.0578 58.8551 29.8111 58.8551 29.5077V23.5943C58.8551 23.2908 59.101 23.0442 59.4052 23.0442H62.2305C62.534 23.0442 62.7806 23.2908 62.7806 23.5943V29.5077ZM67.1881 43.44H65.0679V39.2151H66.7199C66.7913 39.4488 66.9633 39.6387 67.1881 39.7303V43.44ZM67.1881 38.2268C67.0088 38.2991 66.8627 38.4362 66.7743 38.6066H65.0679V34.3306H66.7126C66.7791 34.5756 66.9552 34.776 67.1889 34.8701V38.2268H67.1881Z" fill="#D7CA9B"/>
<path d="M50.1666 19.5227C48.7929 19.5227 47.6797 20.6367 47.6797 22.0104C47.6797 23.3841 48.7929 24.4981 50.1666 24.4981C51.5403 24.4981 52.6543 23.3841 52.6543 22.0104C52.6543 20.6359 51.5403 19.5227 50.1666 19.5227Z" fill="#D7CA9B"/>
<path d="M31.1727 56.6236C31.4453 58.8079 33.305 60.5004 35.5639 60.5004C36.7202 60.5004 37.7701 60.0533 38.5596 59.3272V60.2586C38.5596 60.4225 38.6918 60.5548 38.8549 60.5548H39.3718V65.0044H41.2875V60.5548H42.5516V61.8457C42.5516 61.9877 42.6668 62.1037 42.8096 62.1037H57.5185C57.6605 62.1037 57.7765 61.9877 57.7765 61.8457V60.5548H59.0415V65.0044H60.958V60.5548H61.4732C61.6362 60.5548 61.7685 60.4225 61.7685 60.2586V59.3255C62.5572 60.0525 63.6079 60.5004 64.7658 60.5004C67.0409 60.5004 68.9144 58.7827 69.1635 56.5741L69.7461 53.4219H30.582L31.1727 56.6236Z" fill="#D7CA9B"/>
<path d="M39.1937 65.7744L31.832 72.2631H36.6541L41.1232 65.7744H39.1937Z" fill="#D7CA9B"/>
<path d="M59.1758 65.7744L63.6612 72.2631H68.5002L61.1126 65.7744H59.1758Z" fill="#D7CA9B"/>
<path d="M55.1903 70.1484H45.1153H40.436L39.3398 72.2629H45.1153H55.1903H60.9641L59.8696 70.1484H55.1903Z" fill="#D7CA9B"/>
<path d="M41.2695 68.5396H45.1155H55.1913H59.0373L58.2527 67.0239H55.1913H45.1155H42.0549L41.2695 68.5396Z" fill="#D7CA9B"/>
<path d="M42.6406 65.8872H45.1129H55.1887H57.661L57.1215 64.8438H55.1887H45.1129H43.181L42.6406 65.8872Z" fill="#D7CA9B"/>
<path d="M55.1889 63.6633H56.509L56.1431 62.9558H55.1889H45.1139H44.1597L43.793 63.6633H45.1139H55.1889Z" fill="#D7CA9B"/>
<path d="M46.1133 1.98546L47.8188 16.5296H52.5143L54.2199 1.98546C54.4414 1.89946 54.5988 1.68606 54.5988 1.43534C54.5988 1.23493 54.4982 1.05805 54.344 0.951756C53.733 0.438959 52.3804 0.124142 50.9224 0.0300209C50.9224 0.0300209 50.4753 0 50.214 0C50.2011 0 50.1881 7.92389e-07 50.1759 0.00081218C50.1637 7.92389e-07 50.1516 0 50.1378 0C49.8749 0 49.4108 0.0300209 49.4108 0.0300209C47.9535 0.124142 46.6001 0.439771 45.9892 0.951756C45.835 1.05805 45.7344 1.23493 45.7344 1.43534C45.7344 1.68606 45.8918 1.89946 46.1133 1.98546ZM50.167 1.08969C51.1585 1.09699 52.2953 1.17002 53.2324 1.44589C53.2292 1.44832 53.1991 1.44914 53.1464 1.44914C53.0588 1.44914 52.9095 1.44751 52.7139 1.44751C51.647 1.44751 49.2282 1.50025 48.2545 2.17857L49.0749 14.9563H48.7162L47.1007 1.44589C48.0387 1.17083 49.1755 1.0978 50.167 1.08969Z" fill="#D7CA9B"/>
<path d="M50.1648 44.9355C53.1563 44.9355 55.6635 42.8908 56.384 40.1248H53.1896C53.0217 40.1248 52.8854 39.9885 52.8854 39.8205C52.8854 39.6526 53.0217 39.5162 53.1896 39.5162H56.5106C56.5634 39.1852 56.5991 38.8477 56.5991 38.5012C56.5991 38.119 56.5593 37.7458 56.4952 37.3815H53.1896C53.0217 37.3815 52.8854 37.2452 52.8854 37.0772C52.8854 36.9093 53.0217 36.7729 53.1896 36.7729H56.3573C55.6019 34.0605 53.119 32.0669 50.1648 32.0669C46.6117 32.0669 43.7305 34.9473 43.7305 38.5004C43.7305 42.0535 46.6109 44.9355 50.1648 44.9355Z" fill="#D7CA9B"/>
<path d="M59.5065 51.1118H40.8235C40.7594 51.8064 40.4008 52.4141 39.875 52.8133H60.4543C59.9285 52.4141 59.5698 51.8064 59.5065 51.1118Z" fill="#D7CA9B"/>
<path d="M36.0056 51.1118H30.1562L30.4703 52.8133H36.9532C36.4283 52.4141 36.0697 51.8064 36.0056 51.1118Z" fill="#D7CA9B"/>
<path d="M63.3789 52.8133H69.8611L70.1751 51.1118H64.3274C64.2633 51.8064 63.9047 52.4141 63.3789 52.8133Z" fill="#D7CA9B"/>
<path d="M38.4438 49.3867C37.6527 49.3867 37.0117 50.0277 37.0117 50.8188C37.0117 51.6099 37.6527 52.2509 38.4438 52.2509C39.2349 52.2509 39.8759 51.6099 39.8759 50.8188C39.8759 50.0277 39.2349 49.3867 38.4438 49.3867Z" fill="#D7CA9B"/>
<path d="M62.1537 52.227C62.9344 52.1003 63.4646 51.3646 63.3379 50.5839C63.2112 49.8032 62.4756 49.273 61.6949 49.3997C60.9141 49.5264 60.384 50.262 60.5107 51.0428C60.6374 51.8235 61.373 52.3537 62.1537 52.227Z" fill="#D7CA9B"/>
<path d="M53.1172 16.5922H54.3367C54.6726 16.5922 54.9452 16.8648 54.9452 17.2007V28.2778C55.5254 28.5512 56.0771 28.8742 56.598 29.2393V24.1892V15.5309V15.4084H56.5948C56.5315 13.8067 55.2308 12.5199 53.6048 12.4363L53.1172 16.5922Z" fill="#D7CA9B"/>
<path d="M45.3833 17.2006C45.3833 16.8647 45.6559 16.592 45.9918 16.592H47.2113L46.7245 12.4353C45.0985 12.5197 43.797 13.8057 43.7337 15.4074H43.7305V15.5299V24.1883V29.2383C44.2514 28.8732 44.804 28.5503 45.3841 28.2768V17.2006H45.3833Z" fill="#D7CA9B"/>
<path d="M54.3365 17.2004H45.9922V28.013C47.2831 27.4945 48.69 27.2065 50.1643 27.2065C51.6386 27.2065 53.0456 27.4945 54.3373 28.013V17.2004H54.3365ZM50.1635 25.3638C48.2965 25.3638 46.7825 23.8506 46.7825 21.9828C46.7825 20.1149 48.2965 18.6017 50.1635 18.6017C52.0314 18.6017 53.5454 20.1149 53.5454 21.9828C53.5454 23.8506 52.0314 25.3638 50.1635 25.3638Z" fill="#D7CA9B"/>
<path d="M39.5312 38.4495C39.5312 44.3223 44.2925 49.0835 50.1653 49.0835C56.0381 49.0835 60.7986 44.3223 60.7986 38.4495C60.7986 32.5767 56.0381 27.8154 50.1653 27.8154C44.2925 27.8154 39.5312 32.5767 39.5312 38.4495ZM40.681 38.5022C40.681 38.2685 40.8701 38.0787 41.1045 38.0787C41.3382 38.0787 41.5281 38.2685 41.5281 38.5022C41.5281 38.7359 41.3382 38.9258 41.1045 38.9258C40.8701 38.925 40.681 38.7359 40.681 38.5022ZM41.9565 42.3604C41.7407 42.4504 41.4932 42.3474 41.4039 42.1316C41.3139 41.9149 41.4169 41.6674 41.6328 41.5782C41.8486 41.4881 42.096 41.5912 42.1853 41.807C42.2754 42.0228 42.1723 42.2711 41.9565 42.3604ZM42.1853 35.1966C42.096 35.4125 41.8486 35.5155 41.6328 35.4262C41.4161 35.3362 41.3139 35.0887 41.4039 34.8729C41.4932 34.6571 41.7407 34.554 41.9565 34.6441C42.1723 34.7325 42.2754 34.98 42.1853 35.1966ZM59.6488 38.5022C59.6488 38.7359 59.4589 38.9258 59.2253 38.9258C58.9916 38.9258 58.8017 38.7359 58.8017 38.5022C58.8017 38.2685 58.9916 38.0787 59.2253 38.0787C59.4598 38.0779 59.6488 38.2685 59.6488 38.5022ZM58.3741 34.6433C58.5899 34.5532 58.8374 34.6562 58.9275 34.8721C59.0167 35.0879 58.9145 35.3354 58.6987 35.4254C58.482 35.5147 58.2346 35.4125 58.1453 35.1958C58.0552 34.98 58.1583 34.7325 58.3741 34.6433ZM58.1445 41.807C58.2338 41.5912 58.4812 41.4881 58.6979 41.5782C58.9137 41.6674 59.0167 41.9149 58.9267 42.1316C58.8366 42.3474 58.5891 42.4504 58.3733 42.3604C58.1583 42.2711 58.0553 42.0228 58.1445 41.807ZM44.058 45.2083C43.8925 45.3739 43.6247 45.3739 43.4592 45.2083C43.2937 45.0428 43.2937 44.7751 43.4592 44.6095C43.6247 44.444 43.8925 44.444 44.058 44.6095C44.2227 44.7743 44.2227 45.0428 44.058 45.2083ZM47.0885 47.0348C46.9993 47.2506 46.7518 47.3536 46.536 47.2636C46.3201 47.1735 46.2171 46.926 46.3072 46.7102C46.3964 46.4944 46.6439 46.3913 46.8605 46.4814C47.0764 46.5707 47.1786 46.8189 47.0885 47.0348ZM50.1653 47.9857C49.9308 47.9857 49.7418 47.7958 49.7418 47.5622C49.7418 47.3285 49.9308 47.1386 50.1653 47.1386C50.399 47.1386 50.5889 47.3285 50.5889 47.5622C50.5889 47.7958 50.399 47.9857 50.1653 47.9857ZM53.7938 47.2644C53.578 47.3536 53.3305 47.2514 53.2413 47.0356C53.1512 46.8198 53.2543 46.5715 53.4709 46.4822C53.6867 46.393 53.9342 46.4952 54.0235 46.711C54.1135 46.9269 54.0105 47.1743 53.7938 47.2644ZM56.8714 45.2083C56.7059 45.3739 56.4373 45.3739 56.2726 45.2083C56.1071 45.0428 56.1071 44.7751 56.2726 44.6095C56.4381 44.444 56.7059 44.444 56.8714 44.6095C57.0369 44.7743 57.0369 45.0428 56.8714 45.2083ZM56.2726 31.7953C56.4381 31.6298 56.7059 31.6298 56.8714 31.7953C57.0369 31.9608 57.0369 32.2286 56.8714 32.3941C56.7059 32.5596 56.4373 32.5596 56.2726 32.3941C56.1071 32.2294 56.1071 31.9616 56.2726 31.7953ZM53.2413 29.9689C53.3305 29.7522 53.578 29.65 53.7938 29.74C54.0105 29.8293 54.1127 30.0768 54.0226 30.2926C53.9334 30.5092 53.6859 30.6115 53.4701 30.5214C53.2543 30.433 53.1512 30.1855 53.2413 29.9689ZM50.1653 29.0179C50.399 29.0179 50.5889 29.2078 50.5889 29.4415C50.5889 29.6759 50.399 29.865 50.1653 29.865C49.9308 29.865 49.7418 29.6751 49.7418 29.4415C49.7418 29.207 49.9308 29.0179 50.1653 29.0179ZM46.536 29.74C46.7518 29.65 46.9993 29.753 47.0885 29.9689C47.1786 30.1847 47.0756 30.4322 46.8597 30.5214C46.6431 30.6115 46.3956 30.5084 46.3063 30.2926C46.2171 30.0768 46.3201 29.8293 46.536 29.74ZM43.4584 31.7953C43.6239 31.6298 43.8917 31.6298 44.0572 31.7953C44.2227 31.9608 44.2227 32.2286 44.0572 32.3941C43.8917 32.5596 43.6239 32.5596 43.4584 32.3941C43.2937 32.2294 43.2937 31.9616 43.4584 31.7953ZM50.1653 31.4594C54.0478 31.4594 57.2073 34.6181 57.2073 38.5014C57.2073 42.3839 54.0478 45.5434 50.1653 45.5434C46.282 45.5434 43.1233 42.3839 43.1233 38.5014C43.1225 34.6189 46.282 31.4594 50.1653 31.4594Z" fill="#D7CA9B"/>
<path d="M175.928 41.3689L175.928 46.4944L173.142 41.3705L169.126 41.3689L172.296 47.202L168.688 53.8237H173.15L175.928 48.7266L175.937 53.8237H179.937L179.939 48.8077L182.674 53.8237H187.14L183.529 47.1963L186.696 41.3697L182.724 41.3689L179.937 46.4961L179.937 41.3754L175.928 41.3689Z" fill="#D7CA9B"/>
<path d="M132.951 41.3738L130.645 53.8237H134.688L135.496 49.4381L137.42 53.8237H139.526L141.39 49.4487L142.202 53.8237H146.164L143.866 41.3689H140L138.435 47.5638L136.863 41.3778L132.951 41.3738Z" fill="#D7CA9B"/>
<path d="M114.192 30.1503L117.763 35.5623L119.559 35.5615V38.6642L122.74 38.665L122.741 33.718H121.676L118.351 28.6769L122.422 22.6953L117.61 22.6969L114.193 27.7056V22.6961L110 22.7002V35.5615H114.193L114.192 30.1503Z" fill="#D7CA9B"/>
<path d="M209.374 53.731H213.421L213.42 41.2771L202.8 41.2762L202.802 46.4148C202.806 49.0802 203.116 50.2234 201.109 50.2778V53.6856C203.625 54.1692 205.422 54.0483 206.175 51.7253C206.76 49.9208 206.609 46.7052 206.609 44.6662L209.374 44.6654V53.731Z" fill="#D7CA9B"/>
<path d="M225.802 22.6961V27.3576L223.022 27.3584V22.6961H218.82V35.5607L223.021 35.5615L223.022 30.8692L225.802 30.87V35.5607L229.997 35.5615V22.6953L225.802 22.6961Z" fill="#D7CA9B"/>
<path d="M187.134 46.7846C186.161 55.5557 199.207 56.6121 200.071 48.2906C200.475 44.4089 197.851 41.5869 194.371 41.2477C190.444 40.8664 187.52 43.3078 187.134 46.7846ZM194.076 50.4172C190.248 51.0071 189.705 45.3249 193.176 44.7789C196.913 44.1906 197.468 49.8947 194.076 50.4172Z" fill="#D7CA9B"/>
<path d="M129.612 34.1496L133.86 34.1358L134.408 35.5598L138.137 35.5606L133.167 22.696H130.053L125.082 35.5614H129.068L129.612 34.1496ZM131.741 28.6378L132.81 31.4152L130.672 31.4136L131.741 28.6378Z" fill="#D7CA9B"/>
<path d="M156.212 41.3689C155.057 41.3689 154.141 41.3689 154.141 41.3689L154.141 53.8229H158.176V50.2682C160.265 50.2682 161.91 50.153 162.921 48.9116C164.632 46.8101 164.408 41.9174 160.193 41.4963C159.257 41.403 157.569 41.3689 156.212 41.3689ZM160.731 45.868C160.705 47.1679 159.315 47.0697 158.176 47.0697L158.174 44.5893C159.394 44.5893 160.758 44.5049 160.731 45.868Z" fill="#D7CA9B"/>
<path d="M128.961 45.1053L128.963 41.3689H121.301V53.8237H128.963L128.964 50.1035H125.38V48.9529H128.735V46.1277L125.38 46.1285V45.1045L128.961 45.1053Z" fill="#D7CA9B"/>
<path d="M183.544 34.9052C185.284 35.9024 189.042 36.1141 190.996 35.2346L190.996 31.8901C189.706 32.0515 188.372 32.6333 186.946 32.1822C185.73 31.7976 185.073 30.7411 185.022 29.2336C184.997 28.4774 185.123 27.7844 185.449 27.2075C186.617 25.1409 189.125 25.8201 190.993 26.2444L190.996 23.1555C190.996 22.7611 190.724 22.8049 190.183 22.7254C189.864 22.6784 189.571 22.6386 189.244 22.6005C187.215 22.3676 185.299 22.3522 183.536 23.3543C179.637 25.5693 179.566 32.6244 183.544 34.9052Z" fill="#D7CA9B"/>
<path d="M149.562 31.3592C149.246 29.4346 147.652 29.3299 147.171 29.0216C149.921 28.1842 149.722 25.0036 148.13 23.5788C146.771 22.3641 142.749 22.1167 140.847 23.0132V26.2069C141.582 25.9716 141.983 25.6462 142.879 25.5853C145.798 25.3841 145.519 27.4134 144.174 27.682C143.38 27.8402 142.378 27.6844 141.546 27.7704V30.2597C142.375 30.336 143.621 30.1705 144.343 30.3782C145.054 30.5827 145.547 31.4866 144.973 32.1762C143.956 33.4014 141.643 32.3182 140.582 31.8638V35.0745C143.625 36.4896 150.329 36.0319 149.562 31.3592Z" fill="#D7CA9B"/>
<path d="M196.438 26.5023V35.5615H200.645V26.5023H203.516L203.515 22.6953H193.582L193.583 26.5032L196.438 26.5023Z" fill="#D7CA9B"/>
<path d="M147.863 53.8237H151.923L151.922 41.3689L147.863 41.373V53.8237Z" fill="#D7CA9B"/>
<path d="M155.671 34.1496L159.918 34.1358L160.467 35.5598L164.196 35.5606L159.225 22.696H156.112L151.141 35.5614H155.127L155.671 34.1496ZM157.8 28.6386L158.868 31.4152L156.731 31.4144L157.8 28.6386Z" fill="#D7CA9B"/>
<path d="M170.711 30.1503L174.281 35.5623L176.078 35.5615L176.077 38.6642H179.26V33.718H178.195L174.87 28.6769L178.941 22.6953L174.129 22.6969L170.712 27.7056V22.6961L166.52 22.7002V35.5615H170.712L170.711 30.1503Z" fill="#D7CA9B"/>
<path d="M208.225 34.1508L212.473 34.137L213.022 35.561L216.751 35.5626L211.781 22.6973H208.667L203.695 35.5634L207.682 35.5626L208.225 34.1508ZM210.355 28.6399L211.424 31.4164L209.286 31.4156L210.355 28.6399Z" fill="#D7CA9B"/>
<path d="M112.768 45.0591V53.8237H116.847V45.0591H119.629V41.3689H110L110.001 45.0599L112.768 45.0591Z" fill="#D7CA9B"/>
<path d="M215.371 41.3306V53.8048C217.182 53.8048 219.683 53.9493 221.415 53.7764C225.63 53.3553 225.862 48.3896 224.151 46.2881C223.14 45.0467 221.495 44.9307 219.405 44.9307V41.3314L215.371 41.3306ZM219.406 48.1357C220.545 48.1357 221.935 48.0375 221.961 49.3373C221.988 50.7005 220.624 50.6161 219.404 50.6161L219.406 48.1357Z" fill="#D7CA9B"/>
<path d="M225.941 41.373V53.8237H230.001L229.999 41.3689L225.941 41.373Z" fill="#D7CA9B"/>
<path d="M181.477 63.9526C180.721 63.4885 179.868 63.2565 178.914 63.2565C178.01 63.2565 177.189 63.4699 176.453 63.8966C175.717 64.3234 175.134 64.9125 174.707 65.6606C174.28 66.4095 174.066 67.2363 174.066 68.1402C174.066 69.0563 174.283 69.8863 174.716 70.6287C175.15 71.3712 175.744 71.957 176.499 72.3838C177.254 72.8114 178.09 73.0248 179.006 73.0248C180.021 73.0248 180.919 72.7741 181.699 72.2726C182.48 71.7712 183.067 71.105 183.464 70.2758L182.275 69.7744C181.977 70.3934 181.544 70.8827 180.975 71.2421C180.406 71.6008 179.756 71.7809 179.025 71.7809C178.344 71.7809 177.731 71.6195 177.186 71.2981C176.642 70.976 176.214 70.5403 175.905 69.9894C175.662 69.5553 175.516 69.0814 175.464 68.5678H183.724C183.799 67.5779 183.632 66.6765 183.223 65.8659C182.814 65.0545 182.232 64.4168 181.477 63.9526ZM175.503 67.4165C175.573 67.0156 175.704 66.6408 175.896 66.2927C176.199 65.7417 176.617 65.3052 177.15 64.9839C177.682 64.6626 178.27 64.5011 178.914 64.5011C179.545 64.5011 180.118 64.6488 180.632 64.9466C181.146 65.2436 181.558 65.6493 181.868 66.1637C182.102 66.5515 182.253 66.9694 182.326 67.4173H175.503V67.4165Z" fill="#D7CA9B"/>
<path d="M161.412 67.9365C160.954 67.7751 160.341 67.6209 159.573 67.4724C159.016 67.3734 158.567 67.2745 158.227 67.1747C157.886 67.0765 157.608 66.9272 157.391 66.7292C157.175 66.5312 157.066 66.2651 157.066 65.93C157.066 65.4845 157.27 65.1259 157.679 64.8533C158.087 64.5806 158.607 64.4451 159.238 64.4451C159.882 64.4451 160.399 64.5936 160.789 64.8906C161.179 65.1884 161.424 65.6087 161.523 66.1539L162.915 65.8748C162.768 65.0707 162.371 64.433 161.727 63.9616C161.082 63.491 160.254 63.2565 159.238 63.2565C158.557 63.2565 157.944 63.3741 157.399 63.6094C156.855 63.8447 156.431 64.1701 156.127 64.5847C155.824 64.9993 155.672 65.4667 155.672 65.9868C155.672 66.5937 155.829 67.0708 156.146 67.4173C156.461 67.7637 156.842 68.0112 157.288 68.1605C157.734 68.3082 158.322 68.4575 159.053 68.6059C159.648 68.7179 160.118 68.8258 160.464 68.9313C160.811 69.0368 161.099 69.1974 161.327 69.4141C161.557 69.6307 161.671 69.9253 161.671 70.2961C161.671 70.7545 161.446 71.1294 160.994 71.4198C160.542 71.7111 159.957 71.8564 159.239 71.8564C158.545 71.8564 157.992 71.7079 157.577 71.4109C157.162 71.1131 156.905 70.6863 156.806 70.1289L155.395 70.4072C155.542 71.2121 155.954 71.8499 156.629 72.3205C157.305 72.7911 158.174 73.0264 159.239 73.0264C159.957 73.0264 160.611 72.9087 161.199 72.6734C161.787 72.4381 162.248 72.1103 162.583 71.6884C162.917 71.2673 163.084 70.791 163.084 70.2587C163.084 69.6145 162.92 69.1066 162.592 68.7358C162.263 68.3633 161.87 68.0972 161.412 67.9365Z" fill="#D7CA9B"/>
<path d="M228.159 63.879C227.589 63.526 226.946 63.3491 226.227 63.3491C225.434 63.3491 224.741 63.569 224.147 64.0088C223.67 64.3617 223.293 64.8186 223.016 65.376C222.753 64.8267 222.381 64.3723 221.899 64.0177C221.292 63.5723 220.593 63.3491 219.8 63.3491C219.119 63.3491 218.513 63.526 217.98 63.879C217.566 64.154 217.219 64.4989 216.94 64.9127V63.5357H215.547V72.9341H216.94V67.5667C216.94 67.0223 217.052 66.5233 217.274 66.0713C217.497 65.6186 217.807 65.2664 218.203 65.0125C218.599 64.7593 219.033 64.6319 219.503 64.6319C219.986 64.6319 220.422 64.7593 220.812 65.0125C221.202 65.2664 221.508 65.6194 221.731 66.0713C221.954 66.5233 222.066 67.0215 222.066 67.5667V72.9341H223.46V67.5667C223.46 67.0223 223.571 66.5233 223.794 66.0713C224.016 65.6186 224.326 65.2664 224.722 65.0125C225.119 64.7593 225.552 64.6319 226.023 64.6319C226.505 64.6319 226.944 64.7593 227.34 65.0125C227.737 65.2664 228.046 65.6194 228.269 66.0713C228.493 66.5233 228.604 67.0215 228.604 67.5667V72.9341H229.997V67.3996C229.997 66.632 229.833 65.9415 229.504 65.3289C229.177 64.7147 228.729 64.2319 228.159 63.879Z" fill="#D7CA9B"/>
<path d="M202.001 68.9023C202.001 69.7072 201.741 70.3636 201.22 70.8715C200.7 71.3794 200.043 71.6334 199.251 71.6334C198.731 71.6334 198.264 71.5182 197.849 71.2894C197.434 71.0597 197.105 70.7384 196.864 70.323C196.623 69.9084 196.503 69.4345 196.503 68.9023V63.3491H195.109V68.9023C195.109 69.6828 195.29 70.379 195.648 70.9916C196.008 71.6042 196.5 72.0813 197.125 72.4221C197.75 72.762 198.46 72.9332 199.252 72.9332C200.044 72.9332 200.753 72.7628 201.379 72.4221C202.005 72.0813 202.496 71.605 202.856 70.9916C203.214 70.379 203.394 69.6828 203.394 68.9023V63.3491H202.001V68.9023H202.001Z" fill="#D7CA9B"/>
<path d="M122.612 63.879C122.043 63.526 121.399 63.3491 120.68 63.3491C119.888 63.3491 119.194 63.569 118.6 64.0088C118.123 64.3617 117.746 64.8186 117.469 65.376C117.206 64.8267 116.834 64.3723 116.352 64.0177C115.745 63.5723 115.046 63.3491 114.253 63.3491C113.573 63.3491 112.966 63.526 112.433 63.879C112.019 64.154 111.673 64.4989 111.393 64.9127V63.5357H110V72.9341H111.393V67.5667C111.393 67.0223 111.505 66.5233 111.727 66.0713C111.951 65.6186 112.26 65.2664 112.656 65.0125C113.052 64.7593 113.487 64.6319 113.956 64.6319C114.439 64.6319 114.876 64.7593 115.266 65.0125C115.656 65.2664 115.963 65.6194 116.185 66.0713C116.408 66.5233 116.52 67.0215 116.52 67.5667V72.9341H117.913V67.5667C117.913 67.0223 118.024 66.5233 118.247 66.0713C118.469 65.6186 118.779 65.2664 119.175 65.0125C119.572 64.7593 120.005 64.6319 120.475 64.6319C120.958 64.6319 121.398 64.7593 121.794 65.0125C122.19 65.2664 122.499 65.6194 122.723 66.0713C122.946 66.5233 123.057 67.0215 123.057 67.5667V72.9341H124.45V67.3996C124.45 66.632 124.286 65.9415 123.957 65.3289C123.631 64.7147 123.182 64.2319 122.612 63.879Z" fill="#D7CA9B"/>
<path d="M142.727 68.9023C142.727 69.7072 142.467 70.3636 141.946 70.8715C141.426 71.3794 140.77 71.6334 139.978 71.6334C139.458 71.6334 138.991 71.5182 138.576 71.2894C138.161 71.0597 137.833 70.7384 137.591 70.323C137.35 69.9084 137.229 69.4345 137.229 68.9023V63.3491H135.836V68.9023C135.836 69.6828 136.016 70.379 136.375 70.9916C136.733 71.6042 137.226 72.0813 137.851 72.4221C138.477 72.762 139.185 72.9332 139.978 72.9332C140.771 72.9332 141.479 72.7628 142.105 72.4221C142.73 72.0813 143.222 71.605 143.582 70.9916C143.941 70.379 144.121 69.6828 144.121 68.9023V63.3491H142.728V68.9023H142.727Z" fill="#D7CA9B"/>
<path d="M230 57.8359H110V59.5528H230V57.8359Z" fill="#D7CA9B"/>
</svg>
